<svg width="181" height="81" viewBox="0 0 181 81" fill="none" xmlns="http://www.w3.org/2000/svg">
<path d="M138.773 12V16.5955H144.294V12H138.773Z" fill="#333333"/>
<path d="M138.773 18.0142L137.549 35H143.07L144.294 18.0142H138.773Z" fill="#333333"/>
<path d="M162.97 35L164.194 12.0308H169.653V25.9869L174.279 12.0925H180L174.557 28.0687L177.743 35H171.868L169.653 30.2431L168.429 35H162.97Z" fill="#333333"/>
<path d="M146.235 35L147.459 18.0142H152.979V20.9596C153.185 20.0755 153.565 19.325 154.121 18.7082C154.686 18.081 155.467 17.7675 156.465 17.7675C158.068 17.7675 159.23 18.2609 159.95 19.2479C160.68 20.2348 161.045 21.5867 161.045 23.3036L159.821 35H154.377L155.601 23.8742C155.601 23.4218 155.508 23.0055 155.323 22.6251C155.138 22.2344 154.82 22.0391 154.367 22.0391C153.946 22.0391 153.632 22.1882 153.427 22.4863C153.231 22.7742 153.108 23.1391 153.057 23.5812C153.005 24.013 152.979 24.4448 152.979 24.8766L151.755 35H146.235Z" fill="#333333"/>
<path d="M128.771 35L129.995 12.0308H135.609L134.385 35H128.771Z" fill="#333333"/>
<path fill-rule="evenodd" clip-rule="evenodd" d="M114 12.2737V32.3309C114 33.8194 115.207 35.026 116.695 35.026H121.254C124.408 35.026 127.139 32.6566 127.139 29.3228C127.139 27.7193 126.931 26.3628 126.515 25.2534C126.11 24.134 125.304 23.423 124.097 23.1204C125.02 22.8783 125.704 22.369 126.15 21.5925C126.606 20.8159 126.835 19.8023 126.835 18.5518C126.835 16.9022 126.701 14.9623 125.496 13.6957C123.058 11.0747 117.159 12.2737 114 12.2737ZM120.326 21.3353H119.231V16.3885H120.356C121.117 16.3885 121.497 16.8171 121.497 17.6744V19.3838C121.497 19.9183 121.426 20.3772 121.284 20.7604C121.142 21.1437 120.823 21.3353 120.326 21.3353ZM121.847 28.3698C121.847 29.6808 121.152 30.3364 119.763 30.3364C119.632 30.3364 119.454 30.3263 119.231 30.3061V25.4955H120.22C120.848 25.4955 121.274 25.7173 121.497 26.1611C121.73 26.5948 121.847 27.1898 121.847 27.9462V28.3698Z" fill="#333333"/>
<rect x="113" y="40" width="68" height="31.506" rx="1.55581" fill="#7D0360"/>
<path d="M125 46V65.3303H128.493V51.4037L130.843 65.3303H134.314L136.532 51.4037V65.3303H140.069V46H134.127L132.512 57.7849L130.887 46H125Z" fill="white"/>
<path d="M164.618 64.8361C164.991 65.2827 165.709 65.506 166.77 65.506C167.246 65.506 167.715 65.4621 168.176 65.3742C168.638 65.2937 168.912 65.2388 169 65.2095V62.5296C168.861 62.5589 168.703 62.5735 168.528 62.5735C168.279 62.5735 168.11 62.5186 168.022 62.4088C167.935 62.299 167.891 62.1086 167.891 61.8377V52.491H169V49.4926H167.891V46H164.069V49.4926H162.959V52.491H164.069V62.7602C164.069 63.6902 164.252 64.3821 164.618 64.8361Z" fill="white"/>
<path d="M154.59 48.8556V65.3303H158.587V52.7327C158.587 52.5862 158.756 52.4544 159.093 52.3373C159.429 52.2128 159.821 52.1176 160.268 52.0517C160.715 51.9785 161.099 51.9419 161.421 51.9419V48.6579C160.689 48.6579 160.081 48.8373 159.598 49.1961C159.115 49.5549 158.778 50.0528 158.587 50.6898V48.8556H154.59Z" fill="white"/>
<path fill-rule="evenodd" clip-rule="evenodd" d="M145.714 65.506C144.799 65.506 144.1 65.2937 143.617 64.869C143.141 64.4443 142.815 63.8622 142.639 63.1227C142.463 62.3832 142.376 61.5448 142.376 60.6076C142.376 59.6044 142.474 58.7844 142.672 58.1473C142.87 57.503 143.207 56.9758 143.683 56.5658C144.166 56.1557 144.828 55.8079 145.67 55.5224L148.109 54.6877V52.9963C148.109 52.1103 147.82 51.6673 147.241 51.6673C146.714 51.6673 146.45 52.0261 146.45 52.7436V53.7321H142.628C142.621 53.6736 142.617 53.6003 142.617 53.5125V53.194C142.617 51.5538 143.002 50.3933 143.77 49.7123C144.547 49.024 145.773 48.6799 147.45 48.6799C148.328 48.6799 149.116 48.8373 149.811 49.1522C150.507 49.4597 151.056 49.9173 151.459 50.5251C151.869 51.1328 152.074 51.8833 152.074 52.7766V65.3303H148.164V63.3753C147.973 64.0636 147.658 64.5908 147.219 64.9569C146.78 65.323 146.278 65.506 145.714 65.506ZM147.263 62.4527C147.585 62.4527 147.805 62.3173 147.922 62.0464C148.039 61.7754 148.098 61.4826 148.098 61.1677V56.5768C147.556 56.7964 147.135 57.0747 146.835 57.4115C146.535 57.741 146.384 58.2279 146.384 58.8722V60.992C146.384 61.9658 146.677 62.4527 147.263 62.4527Z" fill="white"/>
<circle cx="45.1457" cy="63.2864" r="5.71277" stroke="#333333" stroke-width="3.31709"/>
<path d="M48.273 60.1589C48.273 60.1589 48.3702 61.1042 47.2305 62.2439C46.0909 63.3835 45.1456 63.2863 45.1456 63.2863C45.1456 63.2863 45.0484 62.341 46.1881 61.2014C47.3277 60.0617 48.273 60.1589 48.273 60.1589Z" fill="#333333"/>
<path d="M48.273 66.4138C48.273 66.4138 47.3277 66.511 46.188 65.3713C45.0484 64.2317 45.1456 63.2864 45.1456 63.2864C45.1456 63.2864 46.0909 63.1892 47.2305 64.3289C48.3701 65.4685 48.273 66.4138 48.273 66.4138Z" fill="#333333"/>
<path d="M45.1456 63.2864C45.1456 63.2864 45.2427 64.2317 44.1031 65.3713C42.9635 66.5109 42.0182 66.4138 42.0182 66.4138C42.0182 66.4138 41.921 65.4685 43.0606 64.3288C44.2003 63.1892 45.1456 63.2864 45.1456 63.2864Z" fill="#333333"/>
<path d="M45.1455 63.2864C45.1455 63.2864 44.2002 63.3835 43.0606 62.2439C41.921 61.1043 42.0181 60.159 42.0181 60.159C42.0181 60.159 42.9634 60.0618 44.1031 61.2014C45.2427 62.3411 45.1455 63.2864 45.1455 63.2864Z" fill="#333333"/>
<circle cx="77.8903" cy="63.032" r="5.71277" stroke="#333333" stroke-width="3.31709"/>
<path d="M81.0174 59.9045C81.0174 59.9045 81.1146 60.8498 79.975 61.9895C78.8353 63.1291 77.8901 63.0319 77.8901 63.0319C77.8901 63.0319 77.7929 62.0866 78.9325 60.947C80.0722 59.8074 81.0174 59.9045 81.0174 59.9045Z" fill="#333333"/>
<path d="M81.0174 66.1594C81.0174 66.1594 80.0721 66.2566 78.9325 65.117C77.7928 63.9773 77.89 63.032 77.89 63.032C77.89 63.032 78.8353 62.9348 79.9749 64.0745C81.1146 65.2141 81.0174 66.1594 81.0174 66.1594Z" fill="#333333"/>
<path d="M77.89 63.032C77.89 63.032 77.9872 63.9773 76.8475 65.1169C75.7079 66.2565 74.7626 66.1594 74.7626 66.1594C74.7626 66.1594 74.6654 65.2141 75.8051 64.0744C76.9447 62.9348 77.89 63.032 77.89 63.032Z" fill="#333333"/>
<path d="M77.89 63.032C77.89 63.032 76.9447 63.1292 75.805 61.9895C74.6654 60.8499 74.7626 59.9046 74.7626 59.9046C74.7626 59.9046 75.7079 59.8074 76.8475 60.947C77.9871 62.0867 77.89 63.032 77.89 63.032Z" fill="#333333"/>
<g opacity="0.6">
<rect width="8.45455" height="1.5" rx="0.75" transform="matrix(1 0 0 -1 16.875 68.625)" fill="#333333"/>
<rect width="8.45455" height="1.5" rx="0.75" transform="matrix(1 0 0 -1 21 64.875)" fill="#333333"/>
<rect width="8.45455" height="1.5" rx="0.75" transform="matrix(1 0 0 -1 14.625 61.125)" fill="#333333"/>
</g>
<path d="M59.8317 25.3366L61.0369 25.1555C61.5837 25.0734 61.9036 24.8096 61.9964 24.3643C62.0893 23.919 62.0915 23.4021 62.0031 22.8137L61.7204 20.932C61.5786 19.9884 61.0893 19.5794 60.2523 19.7052L59.0136 19.8913L59.8317 25.3366Z" fill="#7D0360"/>
<path d="M61.9061 35.1567C63.4349 34.9271 64.091 34.0906 63.8741 32.6474L63.8041 32.1811C63.679 31.3485 63.4523 30.7128 63.1239 30.274C62.805 29.8224 62.2996 29.6486 61.6077 29.7525L60.5197 29.916L61.3152 35.2115C61.5641 35.1968 61.761 35.1785 61.9061 35.1567Z" fill="#7D0360"/>
<path fill-rule="evenodd" clip-rule="evenodd" d="M44.2571 16.4149C42.052 19.7145 40.875 23.5939 40.875 27.5625C40.8787 32.8798 42.9917 37.9785 46.7503 41.7397C50.5089 45.5009 55.606 47.6175 60.9233 47.625C64.8919 47.6278 68.7722 46.4535 72.0733 44.2507C75.3744 42.0479 77.9481 38.9156 79.4688 35.2499C80.9894 31.5842 81.3887 27.5499 80.6162 23.6572C79.8437 19.7645 77.9341 16.1884 75.1288 13.3812C72.3236 10.574 68.7488 8.6618 64.8567 7.88654C60.9646 7.11128 56.9299 7.50775 53.2632 9.02582C49.5964 10.5439 46.4622 13.1153 44.2571 16.4149ZM55.8918 38.3054L52.5748 16.2269C53.3385 16.1122 54.2382 15.9119 55.2104 15.6955C58.664 14.9267 63.032 13.9543 65.4649 15.8911C67.0005 17.0861 67.4682 19.1994 67.741 21.0152C67.9478 22.3918 67.8643 23.5452 67.4906 24.4755C67.128 25.404 66.4589 26.0778 65.4834 26.4968C66.8615 26.6304 67.8662 27.2798 68.4977 28.445C69.1387 29.5974 69.5918 31.0562 69.857 32.8214C70.4083 36.491 67.7941 39.5509 64.3221 40.0725L59.3042 40.8264C57.6657 41.0725 56.1379 39.9438 55.8918 38.3054Z" fill="#7D0360"/>
<path d="M36.633 33.1335C35.0763 29.1788 32.1976 26.035 28.5547 23.8997C25.9639 22.3811 22.6326 23.2503 21.114 25.841C19.5954 28.4318 20.4646 31.7631 23.0553 33.2817L23.4116 33.4905C25.9975 35.0063 27.3941 37.9487 26.9335 40.9105C26.5122 43.6193 25.5 45.9375 25.2168 48.9827C24.777 55.143 29.1263 60.5095 35.0384 61.6043C35.8963 56.9074 39.8978 53.2443 44.8707 53.1853C49.9249 53.1253 54.0643 56.8112 54.9449 61.5992L67.9964 61.4443C68.7631 56.6368 72.814 52.8538 77.8683 52.7938C82.6268 52.7374 86.5745 56.0013 87.755 60.3792C95.6967 57.1369 96.0219 46.6776 97.3101 39.457C98.4375 31.6875 88.5 27.75 83.9717 37.1179C82.0815 41.6743 78.8825 45.5678 74.7792 48.3059C70.676 51.0439 65.8528 52.5035 60.9199 52.5H60.9165C54.308 52.4907 47.9732 49.8602 43.3019 45.1857C39.8791 41.7605 38.25 37.875 36.633 33.1335Z" fill="#333333"/>
</svg>
