<svg width="16" height="16" viewBox="0 0 16 16" fill="none" xmlns="http://www.w3.org/2000/svg">
<g clip-path="url(#clip0_32_6736)">
<path d="M8 5.85068L1.10956 0.191009C0.987406 0.0698576 0.82233 0.00187945 0.650285 0.00187945C0.47824 0.00187945 0.313164 0.0698576 0.191009 0.191009C0.130475 0.251197 0.082436 0.322759 0.0496557 0.401579C0.0168754 0.480398 0 0.56492 0 0.650285C0 0.735649 0.0168754 0.820171 0.0496557 0.898991C0.082436 0.97781 0.130475 1.04937 0.191009 1.10956L5.85068 8L0.191009 14.8904C0.0698576 15.0126 0.00187945 15.1777 0.00187945 15.3497C0.00187945 15.5218 0.0698576 15.6868 0.191009 15.809C0.251197 15.8695 0.322759 15.9176 0.401579 15.9503C0.480398 15.9831 0.56492 16 0.650285 16C0.735649 16 0.820171 15.9831 0.898991 15.9503C0.97781 15.9176 1.04937 15.8695 1.10956 15.809L8 10.1493L14.8904 15.809C15.1405 16.0591 15.555 16.0623 15.809 15.809C15.8695 15.7488 15.9176 15.6772 15.9503 15.5984C15.9831 15.5196 16 15.4351 16 15.3497C16 15.2644 15.9831 15.1798 15.9503 15.101C15.9176 15.0222 15.8695 14.9506 15.809 14.8904L10.1493 8L15.809 1.10956C15.9301 0.987406 15.9981 0.82233 15.9981 0.650285C15.9981 0.47824 15.9301 0.313164 15.809 0.191009C15.7488 0.130475 15.6772 0.082436 15.5984 0.0496557C15.5196 0.0168754 15.4351 0 15.3497 0C15.2644 0 15.1798 0.0168754 15.101 0.0496557C15.0222 0.082436 14.9506 0.130475 14.8904 0.191009L8 5.85068Z" fill="#5D104B"/>
</g>
<defs>
<clipPath id="clip0_32_6736">
<rect width="16" height="16" fill="white"/>
</clipPath>
</defs>
</svg>
