<svg width="480" height="480" viewBox="0 0 480 480" fill="none" xmlns="http://www.w3.org/2000/svg">
<rect width="480" height="480" rx="20" fill="#F0EEED"/>
<path d="M245.629 195.629C245.629 192.52 243.109 190 240 190C236.891 190 234.371 192.52 234.371 195.629V234.371H195.629C192.52 234.371 190 236.891 190 240C190 243.109 192.52 245.629 195.629 245.629H234.371V284.371C234.371 287.48 236.891 290 240 290C243.109 290 245.629 287.48 245.629 284.371V245.629H284.371C287.48 245.629 290 243.109 290 240C290 236.891 287.48 234.371 284.371 234.371H245.629V195.629Z" fill="#E1E1E1"/>
</svg>
