<svg width="32" height="32" viewBox="0 0 32 32" fill="none" xmlns="http://www.w3.org/2000/svg">
<circle cx="16" cy="16" r="16" fill="#5D104B"/>
<path d="M24.1727 14.418H22.9727V17.425H24.1727V22.3633C24.1727 22.7195 23.8891 23.0078 23.5375 23.0078H8.60781C8.25625 23.0078 7.97266 22.7195 7.97266 22.3633V11.1953C7.97266 10.8391 8.25625 10.5508 8.60781 10.5508H23.5375C23.8891 10.5508 24.1727 10.8391 24.1727 11.1953V14.418ZM9.24297 11.8398V21.7188H22.9727V11.8398H9.24297Z" fill="white"/>
<path d="M22.616 11.132L21.4652 11.4438L20.748 8.72267L10.6488 11.7977L10.248 10.6422L20.9637 7.42892C21.3012 7.32814 21.6527 7.52267 21.7535 7.86486C21.7559 7.86955 21.7559 7.87658 21.7582 7.88127L22.616 11.132ZM24.8074 13.1282C25.159 13.1282 25.4426 13.4164 25.4426 13.7727V18.0664C25.4426 18.4227 25.159 18.711 24.8074 18.711H20.5723C19.0512 18.711 17.8184 17.4617 17.8184 15.9196C17.8184 14.3774 19.0512 13.1282 20.5723 13.1282H24.8074ZM23.8535 14.4172H20.5723C19.7543 14.4172 19.091 15.0899 19.091 15.9196C19.091 16.7492 19.7543 17.4219 20.5723 17.4219H23.8535C24.0293 17.4219 24.1723 17.2766 24.1723 17.1008V14.7383C24.1723 14.5602 24.0293 14.4172 23.8535 14.4172Z" fill="white"/>
<path d="M24.1727 14.418H22.9727V17.425H24.1727V22.3633C24.1727 22.7195 23.8891 23.0078 23.5375 23.0078H8.60781C8.25625 23.0078 7.97266 22.7195 7.97266 22.3633V11.1953C7.97266 10.8391 8.25625 10.5508 8.60781 10.5508H23.5375C23.8891 10.5508 24.1727 10.8391 24.1727 11.1953V14.418ZM9.24297 11.8398V21.7188H22.9727V11.8398H9.24297Z" fill="white"/>
<path d="M22.616 11.132L21.4652 11.4438L20.748 8.72267L10.6488 11.7977L10.248 10.6422L20.9637 7.42892C21.3012 7.32814 21.6527 7.52267 21.7535 7.86486C21.7559 7.86955 21.7559 7.87658 21.7582 7.88127L22.616 11.132ZM24.8074 13.1282C25.159 13.1282 25.4426 13.4164 25.4426 13.7727V18.0664C25.4426 18.4227 25.159 18.711 24.8074 18.711H20.5723C19.0512 18.711 17.8184 17.4617 17.8184 15.9196C17.8184 14.3774 19.0512 13.1282 20.5723 13.1282H24.8074ZM23.8535 14.4172H20.5723C19.7543 14.4172 19.091 15.0899 19.091 15.9196C19.091 16.7492 19.7543 17.4219 20.5723 17.4219H23.8535C24.0293 17.4219 24.1723 17.2766 24.1723 17.1008V14.7383C24.1723 14.5602 24.0293 14.4172 23.8535 14.4172Z" fill="white"/>
<path d="M24.1727 14.418H22.9727V17.425H24.1727V22.3633C24.1727 22.7195 23.8891 23.0078 23.5375 23.0078H8.60781C8.25625 23.0078 7.97266 22.7195 7.97266 22.3633V11.1953C7.97266 10.8391 8.25625 10.5508 8.60781 10.5508H23.5375C23.8891 10.5508 24.1727 10.8391 24.1727 11.1953V14.418ZM9.24297 11.8398V21.7188H22.9727V11.8398H9.24297Z" fill="white"/>
<path d="M22.616 11.132L21.4652 11.4438L20.748 8.72267L10.6488 11.7977L10.248 10.6422L20.9637 7.42892C21.3012 7.32814 21.6527 7.52267 21.7535 7.86486C21.7559 7.86955 21.7559 7.87658 21.7582 7.88127L22.616 11.132ZM24.8074 13.1282C25.159 13.1282 25.4426 13.4164 25.4426 13.7727V18.0664C25.4426 18.4227 25.159 18.711 24.8074 18.711H20.5723C19.0512 18.711 17.8184 17.4617 17.8184 15.9196C17.8184 14.3774 19.0512 13.1282 20.5723 13.1282H24.8074ZM23.8535 14.4172H20.5723C19.7543 14.4172 19.091 15.0899 19.091 15.9196C19.091 16.7492 19.7543 17.4219 20.5723 17.4219H23.8535C24.0293 17.4219 24.1723 17.2766 24.1723 17.1008V14.7383C24.1723 14.5602 24.0293 14.4172 23.8535 14.4172Z" fill="white"/>
<path d="M24.1727 14.418H22.9727V17.425H24.1727V22.3633C24.1727 22.7195 23.8891 23.0078 23.5375 23.0078H8.60781C8.25625 23.0078 7.97266 22.7195 7.97266 22.3633V11.1953C7.97266 10.8391 8.25625 10.5508 8.60781 10.5508H23.5375C23.8891 10.5508 24.1727 10.8391 24.1727 11.1953V14.418ZM9.24297 11.8398V21.7188H22.9727V11.8398H9.24297Z" fill="white"/>
<path d="M22.616 11.132L21.4652 11.4438L20.748 8.72267L10.6488 11.7977L10.248 10.6422L20.9637 7.42892C21.3012 7.32814 21.6527 7.52267 21.7535 7.86486C21.7559 7.86955 21.7559 7.87658 21.7582 7.88127L22.616 11.132ZM24.8074 13.1282C25.159 13.1282 25.4426 13.4164 25.4426 13.7727V18.0664C25.4426 18.4227 25.159 18.711 24.8074 18.711H20.5723C19.0512 18.711 17.8184 17.4617 17.8184 15.9196C17.8184 14.3774 19.0512 13.1282 20.5723 13.1282H24.8074ZM23.8535 14.4172H20.5723C19.7543 14.4172 19.091 15.0899 19.091 15.9196C19.091 16.7492 19.7543 17.4219 20.5723 17.4219H23.8535C24.0293 17.4219 24.1723 17.2766 24.1723 17.1008V14.7383C24.1723 14.5602 24.0293 14.4172 23.8535 14.4172Z" fill="white"/>
<path d="M24.1727 14.418H22.9727V17.425H24.1727V22.3633C24.1727 22.7195 23.8891 23.0078 23.5375 23.0078H8.60781C8.25625 23.0078 7.97266 22.7195 7.97266 22.3633V11.1953C7.97266 10.8391 8.25625 10.5508 8.60781 10.5508H23.5375C23.8891 10.5508 24.1727 10.8391 24.1727 11.1953V14.418ZM9.24297 11.8398V21.7188H22.9727V11.8398H9.24297Z" fill="white"/>
<path d="M22.616 11.132L21.4652 11.4438L20.748 8.72267L10.6488 11.7977L10.248 10.6422L20.9637 7.42892C21.3012 7.32814 21.6527 7.52267 21.7535 7.86486C21.7559 7.86955 21.7559 7.87658 21.7582 7.88127L22.616 11.132ZM24.8074 13.1282C25.159 13.1282 25.4426 13.4164 25.4426 13.7727V18.0664C25.4426 18.4227 25.159 18.711 24.8074 18.711H20.5723C19.0512 18.711 17.8184 17.4617 17.8184 15.9196C17.8184 14.3774 19.0512 13.1282 20.5723 13.1282H24.8074ZM23.8535 14.4172H20.5723C19.7543 14.4172 19.091 15.0899 19.091 15.9196C19.091 16.7492 19.7543 17.4219 20.5723 17.4219H23.8535C24.0293 17.4219 24.1723 17.2766 24.1723 17.1008V14.7383C24.1723 14.5602 24.0293 14.4172 23.8535 14.4172Z" fill="white"/>
<path d="M20.0879 15.8711C20.0879 16.042 20.1548 16.206 20.2739 16.3268C20.393 16.4477 20.5546 16.5156 20.723 16.5156C20.8915 16.5156 21.0531 16.4477 21.1722 16.3268C21.2913 16.206 21.3582 16.042 21.3582 15.8711C21.3582 15.7002 21.2913 15.5362 21.1722 15.4153C21.0531 15.2945 20.8915 15.2266 20.723 15.2266C20.5546 15.2266 20.393 15.2945 20.2739 15.4153C20.1548 15.5362 20.0879 15.7002 20.0879 15.8711Z" fill="white"/>
</svg>
